<?xml version="1.0" standalone="no"?>
<!DOCTYPE svg PUBLIC "-//W3C//DTD SVG 1.1//EN" "http://www.w3.org/Graphics/SVG/1.1/DTD/svg11.dtd" >
<svg xmlns="http://www.w3.org/2000/svg">
<metadata>Generated by IcoMoon</metadata>
<defs>
<font id="icomoon" horiz-adv-x="1024">
<font-face units-per-em="1024" ascent="960" descent="-64" />
<missing-glyph horiz-adv-x="1024" />
<glyph unicode="&#x20;" horiz-adv-x="512" d="" />
<glyph unicode="&#xe900;" glyph-name="map" d="M660.48 79.36c-2.56 0-5.12 0-6.4 1.28l-275.2 75.52-217.6-49.92c-1.28 0-3.84 0-5.12 0-28.16 0-51.2 21.76-51.2 49.92v563.2c0 14.080 11.52 25.6 25.6 25.6s25.6-11.52 25.6-25.6v-561.92l218.88 49.92c3.84 1.28 8.96 1.28 12.8 0l276.48-75.52 181.76 24.32c1.28 0 2.56 0 3.84 0v561.92l-183.040-25.6c-3.84 0-8.96 0-12.8 1.28l-65.28 25.6c-12.8 5.12-19.2 20.48-14.080 33.28s20.48 19.2 33.28 14.080l58.88-23.040 180.48 24.32c1.28 0 2.56 0 3.84 0 28.16 0 51.2-21.76 51.2-49.92v-564.48c0-26.88-21.76-48.64-48.64-49.92l-184.32-25.6c-6.4 2.56-7.68 1.28-8.96 1.28zM382.72 395.52c-7.68 0-14.080 2.56-19.2 8.96-14.080 16.64-143.36 165.12-143.36 248.32 0 89.6 72.96 163.84 163.84 163.84s162.56-74.24 162.56-163.84c0-83.2-129.28-231.68-144.64-248.32-5.12-6.4-11.52-8.96-19.2-8.96zM382.72 765.44c-61.44 0-112.64-49.92-112.64-112.64 0-42.24 62.72-131.84 112.64-192 49.92 60.16 112.64 149.76 112.64 192 0 61.44-49.92 112.64-112.64 112.64zM380.16 186.88h-5.12c-8.96 0-16.64 7.68-16.64 16.64v116.48c0 8.96 7.68 16.64 16.64 16.64h5.12c8.96 0 16.64-7.68 16.64-16.64v-116.48c0-8.96-7.68-16.64-16.64-16.64zM651.52 706.56h38.4v-584.96h-38.4v584.96zM672.571 378.894l-7.169 37.724 222.573 42.299 7.169-37.724-222.573-42.299zM675.84 395.52v-1.28c-2.56-10.24-14.080-15.36-23.040-12.8l-134.4 40.96c-10.24 2.56-15.36 14.080-12.8 23.040v1.28c2.56 10.24 14.080 15.36 23.040 12.8l134.4-39.68c10.24-2.56 16.64-14.080 12.8-24.32zM431.36 648.96c0-27.57-22.35-49.92-49.92-49.92s-49.92 22.35-49.92 49.92c0 27.57 22.35 49.92 49.92 49.92s49.92-22.35 49.92-49.92z" />
<glyph unicode="&#xe901;" glyph-name="user" d="M514.56 396.8c-120.32 0-218.88 98.56-218.88 218.88s98.56 220.16 218.88 220.16c120.32 0 218.88-98.56 218.88-218.88s-98.56-220.16-218.88-220.16zM514.56 784.64c-92.16 0-167.68-75.52-167.68-167.68s75.52-168.96 167.68-168.96 167.68 75.52 167.68 167.68-75.52 168.96-167.68 168.96zM844.8 60.16c-14.080 0-25.6 11.52-25.6 25.6 0 170.24-138.24 307.2-307.2 307.2s-307.2-138.24-307.2-307.2c0-14.080-11.52-25.6-25.6-25.6s-25.6 11.52-25.6 25.6c0 198.4 161.28 358.4 358.4 358.4s358.4-161.28 358.4-358.4c0-14.080-11.52-25.6-25.6-25.6z" />
<glyph unicode="&#xe902;" glyph-name="equipment" d="M510.72 273.92h-179.2c-6.4 0-12.8 2.56-17.92 7.68-1.28 1.28-89.6 87.040-106.24 101.12-21.76 20.48-74.24 74.24-76.8 151.040 0 14.080 10.24 25.6 24.32 26.88 14.080 0 25.6-10.24 26.88-24.32 2.56-56.32 43.52-99.84 60.16-115.2 14.080-12.8 78.080-74.24 99.84-96h168.96c14.080 0 25.6-11.52 25.6-25.6s-11.52-25.6-25.6-25.6zM692.48 273.92h-179.2c-14.080 0-25.6 11.52-25.6 25.6s11.52 25.6 25.6 25.6h168.96c21.76 21.76 85.76 83.2 99.84 96 17.92 15.36 57.6 57.6 60.16 115.2 0 14.080 12.8 25.6 26.88 24.32 14.080 0 25.6-12.8 24.32-26.88-2.56-76.8-55.040-130.56-76.8-151.040-16.64-14.080-106.24-101.12-106.24-101.12-5.12-5.12-11.52-7.68-17.92-7.68zM894.72 624.64h-51.2c0 44.8-80.64 145.92-158.72 145.92h-345.6c-79.36 0-158.72-99.84-158.72-145.92h-51.2c0 74.24 101.12 197.12 209.92 197.12h345.6c106.24 0 209.92-125.44 209.92-197.12zM869.12 523.52h-727.040c-14.080 0-12.8 11.52-12.8 25.6v81.92c0 14.080 11.52 25.6 25.6 25.6h714.24c14.080 0 25.6-11.52 25.6-25.6v-81.92c0-14.080-11.52-25.6-25.6-25.6zM180.48 574.72h663.040v30.72h-663.040v-30.72zM778.24 224h-528.64c-42.24 0-76.8 43.52-76.8 99.84v108.8h51.2v-108.8c0-29.44 15.36-48.64 25.6-48.64h527.36c10.24 0 25.6 19.2 25.6 48.64v108.8h51.2v-108.8c0-56.32-33.28-99.84-75.52-99.84zM600.32 74.24h-174.080c-14.080 0-25.6 11.52-25.6 25.6v176.64c0 14.080 11.52 25.6 25.6 25.6h174.080c14.080 0 25.6-11.52 25.6-25.6v-176.64c0-14.080-11.52-25.6-25.6-25.6zM451.84 125.44h122.88v125.44h-122.88v-125.44zM327.68 487.68h369.92v-25.6h-369.92v25.6zM664.32 345.6h-302.080v93.44h302.080v-93.44zM387.84 371.2h250.88v42.24h-250.88v-42.24z" />
<glyph unicode="&#xe903;" glyph-name="userlist" d="M422.4 399.36c-120.32 0-218.88 98.56-218.88 218.88s98.56 218.88 218.88 218.88c120.32 0 218.88-98.56 218.88-218.88s-97.28-218.88-218.88-218.88zM422.4 787.2c-92.16 0-167.68-75.52-167.68-167.68s75.52-167.68 167.68-167.68c92.16 0 167.68 75.52 167.68 167.68s-74.24 167.68-167.68 167.68zM753.92 62.72c-14.080 0-25.6 11.52-25.6 25.6 0 170.24-138.24 307.2-307.2 307.2-170.24 0-307.2-138.24-307.2-307.2 0-14.080-11.52-25.6-25.6-25.6s-25.6 11.52-25.6 25.6c0 198.4 161.28 358.4 358.4 358.4 198.4 0 358.4-161.28 358.4-358.4 0-14.080-11.52-25.6-25.6-25.6zM652.8 414.72c-14.080 0-25.6 11.52-25.6 25.6s11.52 25.6 25.6 25.6c78.080 0 140.8 62.72 140.8 140.8s-62.72 140.8-140.8 140.8c-14.080 0-25.6 11.52-25.6 25.6s11.52 25.6 25.6 25.6c106.24 0 192-85.76 192-192s-85.76-192-192-192zM936.96 125.44c-14.080 0-25.6 11.52-25.6 25.6 0 144.64-117.76 261.12-261.12 261.12-14.080 0-25.6 11.52-25.6 25.6s11.52 25.6 25.6 25.6c172.8 0 312.32-140.8 312.32-312.32 0-14.080-11.52-25.6-25.6-25.6z" />
<glyph unicode="&#xe904;" glyph-name="map-selected" d="M382.72 810.24c-90.88 0-165.12-74.24-165.12-165.12 0-74.24 111.36-200.96 151.040-244.48 7.68-7.68 20.48-7.68 28.16 0 39.68 43.52 151.040 170.24 151.040 244.48 1.28 92.16-72.96 165.12-165.12 165.12zM381.44 592.64c-28.16 0-52.48 23.040-52.48 52.48 0 28.16 23.040 52.48 52.48 52.48s52.48-23.040 52.48-52.48c0-29.44-23.040-52.48-52.48-52.48zM660.48 75.52c-2.56 0-5.12 0-6.4 1.28l-275.2 75.52-217.6-49.92c-1.28 0-3.84 0-5.12 0-28.16 0-51.2 21.76-51.2 49.92v563.2c0 14.080 11.52 25.6 25.6 25.6s25.6-11.52 25.6-25.6v-561.92l218.88 49.92c3.84 1.28 8.96 1.28 12.8 0l276.48-75.52 181.76 24.32c1.28 0 2.56 0 3.84 0v560.64l-183.040-25.6c-3.84 0-8.96 0-12.8 1.28l-65.28 25.6c-12.8 5.12-19.2 20.48-14.080 33.28s20.48 19.2 33.28 14.080l58.88-23.040 180.48 24.32c1.28 0 2.56 0 3.84 0 28.16 0 51.2-21.76 51.2-49.92v-564.48c0-26.88-21.76-48.64-48.64-49.92l-184.32-25.6c-6.4 2.56-7.68 2.56-8.96 2.56zM380.16 183.040h-5.12c-8.96 0-16.64 7.68-16.64 16.64v116.48c0 8.96 7.68 16.64 16.64 16.64h5.12c8.96 0 16.64-7.68 16.64-16.64v-116.48c0-8.96-7.68-16.64-16.64-16.64zM651.52 702.72h38.4v-584.96h-38.4v584.96zM672.084 374.464l-7.169 37.724 222.573 42.299 7.169-37.724-222.573-42.299zM675.84 391.68v-1.28c-2.56-10.24-14.080-15.36-23.040-12.8l-134.4 39.68c-10.24 2.56-15.36 14.080-12.8 23.040v1.28c2.56 10.24 14.080 15.36 23.040 12.8l134.4-39.68c10.24-2.56 16.64-12.8 12.8-23.040z" />
<glyph unicode="&#xe905;" glyph-name="user-selected" d="M704 619.52c0-106.746-86.534-193.28-193.28-193.28s-193.28 86.534-193.28 193.28c0 106.746 86.534 193.28 193.28 193.28s193.28-86.534 193.28-193.28zM175.36 88.32c0 184.32 149.76 332.8 332.8 332.8s332.8-149.76 332.8-332.8z" />
<glyph unicode="&#xe906;" glyph-name="equipment-selected" d="M692.48 273.92h-179.2c-14.080 0-25.6 11.52-25.6 25.6s11.52 25.6 25.6 25.6h168.96c21.76 21.76 85.76 83.2 99.84 96 17.92 15.36 57.6 57.6 60.16 115.2 0 14.080 12.8 25.6 26.88 24.32 14.080 0 25.6-12.8 24.32-26.88-2.56-76.8-55.040-130.56-76.8-151.040-16.64-14.080-106.24-101.12-106.24-101.12-5.12-5.12-11.52-7.68-17.92-7.68zM510.72 273.92h-179.2c-6.4 0-12.8 2.56-17.92 7.68-1.28 1.28-89.6 87.040-106.24 101.12-21.76 20.48-74.24 74.24-76.8 151.040 0 14.080 10.24 25.6 24.32 26.88 14.080 0 25.6-10.24 26.88-24.32 2.56-56.32 43.52-99.84 60.16-115.2 14.080-12.8 78.080-74.24 99.84-96h168.96c14.080 0 25.6-11.52 25.6-25.6s-11.52-25.6-25.6-25.6zM154.88 624.64v0c0 61.44 90.88 171.52 184.32 171.52h345.6c90.88 0 184.32-112.64 184.32-171.52zM894.72 624.64h-51.2c0 44.8-80.64 145.92-158.72 145.92h-345.6c-79.36 0-158.72-99.84-158.72-145.92h-51.2c0 74.24 101.12 197.12 209.92 197.12h345.6c106.24 0 209.92-125.44 209.92-197.12zM869.12 523.52h-714.24c-14.080 0-25.6 11.52-25.6 25.6v81.92c0 14.080 11.52 25.6 25.6 25.6h714.24c14.080 0 25.6-11.52 25.6-25.6v-81.92c0-14.080-11.52-25.6-25.6-25.6zM180.48 574.72h663.040v30.72h-663.040v-30.72zM778.24 224h-528.64c-42.24 0-76.8 43.52-76.8 99.84v108.8h51.2v-108.8c0-29.44 15.36-48.64 25.6-48.64h527.36c10.24 0 25.6 19.2 25.6 48.64v108.8h51.2v-108.8c0-56.32-33.28-99.84-75.52-99.84zM600.32 74.24h-174.080c-14.080 0-25.6 11.52-25.6 25.6v176.64c0 14.080 11.52 25.6 25.6 25.6h174.080c14.080 0 25.6-11.52 25.6-25.6v-176.64c0-14.080-11.52-25.6-25.6-25.6zM451.84 125.44h122.88v125.44h-122.88v-125.44zM327.68 487.68h369.92v-25.6h-369.92v25.6zM664.32 345.6h-302.080v93.44h302.080v-93.44zM387.84 371.2h250.88v42.24h-250.88v-42.24z" />
<glyph unicode="&#xe907;" glyph-name="userlist-selected" d="M614.4 619.52c0-106.746-86.534-193.28-193.28-193.28s-193.28 86.534-193.28 193.28c0 106.746 86.534 193.28 193.28 193.28s193.28-86.534 193.28-193.28zM85.76 88.32c0 184.32 149.76 332.8 332.8 332.8s332.8-149.76 332.8-332.8zM651.52 414.72c-14.080 0-25.6 11.52-25.6 25.6s11.52 25.6 25.6 25.6c78.080 0 140.8 62.72 140.8 140.8s-62.72 140.8-140.8 140.8c-14.080 0-25.6 11.52-25.6 25.6s11.52 25.6 25.6 25.6c106.24 0 192-85.76 192-192s-85.76-192-192-192zM935.68 125.44c-14.080 0-25.6 11.52-25.6 25.6 0 144.64-117.76 261.12-261.12 261.12-14.080 0-25.6 11.52-25.6 25.6s11.52 25.6 25.6 25.6c172.8 0 312.32-140.8 312.32-312.32 0-14.080-11.52-25.6-25.6-25.6z" />
<glyph unicode="&#xe908;" glyph-name="edit" d="M358.166 405.375c-0.533-0.68-1.066-1.392-1.304-2.251l-41.104-150.7c-2.401-8.773 0.059-18.226 6.55-24.893 4.861-4.742 11.261-7.35 18.078-7.35 2.252 0 4.505 0.267 6.727 0.861l149.631 40.808c0.238 0 0.357-0.208 0.534-0.208 1.718 0 3.409 0.622 4.684 1.928l400.114 400.054c11.884 11.898 18.404 28.109 18.404 45.743 0 19.989-8.476 39.963-23.324 54.767l-37.787 37.845c-14.816 14.848-34.822 23.339-54.797 23.339-17.632 0-33.843-6.521-45.758-18.389l-400.055-400.161c-0.413-0.384-0.296-0.948-0.592-1.393zM862.925 702.802l-39.742-39.713-64.428 65.452 39.18 39.179c6.193 6.223 18.194 5.318 25.308-1.823l37.813-37.846c3.944-3.942 6.195-9.186 6.195-14.372-0.028-4.254-1.541-8.107-4.327-10.877zM429.322 399.092l288.713 288.729 64.459-65.496-288.179-288.164-64.992 64.931zM376.718 282.030l20.863 76.58 55.657-55.658-76.52-20.923zM888.265 544.264c-15.145 0-27.563-12.313-27.62-27.665v-372.983c0-19.559-15.886-35.444-35.476-35.444h-630.948c-19.559 0-35.505 15.884-35.505 35.444v608.781c0 19.576 15.945 35.475 35.505 35.475h406.367c15.232 0 27.592 12.372 27.592 27.607 0 15.202-12.361 27.59-27.592 27.59h-410.575c-47.684 0-86.493-38.779-86.493-86.493v-617.169c0-47.714 38.809-86.478 86.493-86.478h639.334c47.716 0 86.509 38.764 86.509 86.478v377.37c-0.062 15.174-12.447 27.487-27.591 27.487z" />
<glyph unicode="&#xe909;" glyph-name="related" d="M107.977 240.553c-36.161 36.122-58.543 86-58.563 141.015l0.017 4.191c-0.029 52.919 20.792 103.009 58.588 140.806 37.792 37.792 87.869 58.626 141.017 58.625l96.765-3.201c16.803-0.527 30.016-14.62 29.458-31.477-0.559-16.833-14.652-30.025-31.476-29.456l-95.769 3.17c-35.824-0.009-70.597-14.507-96.872-40.783-26.277-26.276-40.753-61.027-40.744-97.839l-0.010-4.201c0.053-76.228 62.219-138.392 138.615-138.448l215.467 0.050c78.343 0.065 139.773 57.997 139.782 131.912l0.001 3.959c-0.012 5.506-1.981 21.095-7.906 31.72-8.18 14.706-2.897 33.277 11.821 41.466 14.728 8.16 33.277 2.872 41.489-11.822 12.297-22.105 15.582-48.975 15.57-61.363l-0.001-3.961c-0.033-108.085-88.2-192.799-200.735-192.901l-215.495-0.026c-55.009 0.009-104.89 22.435-141.019 58.562v0zM379.162 375.474c-5.517 5.517-8.937 13.147-8.928 21.557 0.032 109.031 81.296 188.149 193.243 188.127l215.472 0.041c110.013 0.021 199.581-89.464 199.581-199.581l-0.010-4.095c0.010-53.046-20.793-103.114-58.589-140.908-37.802-37.76-87.878-58.574-141.011-58.563l-97.38 3.896c-16.761 0.631-29.919 14.844-29.247 31.689 0.683 16.813 14.876 29.908 31.711 29.225l96.149-3.863c35.614 0.030 70.395 14.473 96.673 40.75 26.265 26.266 40.718 61.015 40.72 97.862l0.012 4.097c-0.003 76.305-62.156 138.498-138.605 138.52l-215.48-0.041c-77.859 0-132.243-52.276-132.262-127.152-0.003-16.843-13.647-30.485-30.487-30.485-8.423-0.005-16.044 3.407-21.562 8.925v0z" />
<glyph unicode="&#xe90a;" glyph-name="sign-out" d="M960.512 420.288l-144.768-144.832-48.256 48.256 60.224 60.288h-315.712v64h325.76l-70.272 70.272 48.256 48.256 144.768-144.768-0.704-0.768 0.704-0.704zM704 768c0 35.346-28.654 64-64 64v0h-448c-35.346 0-64-28.654-64-64v0-640c0-35.346 28.654-64 64-64v0h448c35.346 0 64 28.654 64 64v0 64h64v-64c0-70.692-57.308-128-128-128v0h-448c-70.692 0-128 57.308-128 128v0 640c0 70.692 57.308 128 128 128v0h448c70.692 0 128-57.308 128-128v0-128h-64v128z" />
<glyph unicode="&#xe90b;" glyph-name="drow-down" horiz-adv-x="1079" d="M503.074 386.551c9.364-9.42 22.331-15.25 36.659-15.25s27.295 5.83 36.657 15.248l0.002 0.003 369.707 370.492c9.392 9.441 15.198 22.457 15.198 36.83s-5.806 27.389-15.2 36.832l0.002-0.002c-9.362 9.424-22.33 15.257-36.659 15.257s-27.297-5.833-36.656-15.255l-0.003-0.003-333.065-333.773-333.064 333.773c-9.362 9.424-22.33 15.257-36.659 15.257s-27.297-5.833-36.656-15.255l-0.003-0.003c-9.382-9.445-15.181-22.46-15.181-36.83s5.799-27.384 15.184-36.833l-0.003 0.003 369.741-370.492zM872.781 509.422l-333.065-333.763-333.064 333.764c-9.362 9.424-22.33 15.257-36.659 15.257s-27.297-5.833-36.656-15.255l-0.003-0.003c-9.381-9.443-15.179-22.455-15.179-36.821s5.798-27.379 15.182-36.824l-0.003 0.003 369.732-370.492c9.366-9.416 22.332-15.243 36.659-15.243s27.293 5.827 36.657 15.241l0.002 0.002 369.741 370.492c9.379 9.444 15.176 22.456 15.176 36.821s-5.797 27.378-15.179 36.824l0.003-0.003c-9.368 9.424-22.339 15.256-36.672 15.256s-27.304-5.832-36.669-15.253l-0.003-0.003z" />
<glyph unicode="&#xe90c;" glyph-name="list" d="M179.2 243.2c-15.36 0-25.6-10.24-25.6-25.6s10.24-25.6 25.6-25.6 25.6 10.24 25.6 25.6-10.24 25.6-25.6 25.6zM179.2 448c-15.36 0-25.6-10.24-25.6-25.6s10.24-25.6 25.6-25.6 25.6 10.24 25.6 25.6-10.24 25.6-25.6 25.6zM332.8 601.6h512c15.36 0 25.6 10.24 25.6 25.6s-10.24 25.6-25.6 25.6h-512c-15.36 0-25.6-10.24-25.6-25.6s10.24-25.6 25.6-25.6zM844.8 448h-512c-15.36 0-25.6-10.24-25.6-25.6s10.24-25.6 25.6-25.6h512c15.36 0 25.6 10.24 25.6 25.6s-10.24 25.6-25.6 25.6zM179.2 652.8c-15.36 0-25.6-10.24-25.6-25.6s10.24-25.6 25.6-25.6 25.6 10.24 25.6 25.6-10.24 25.6-25.6 25.6zM844.8 243.2h-512c-15.36 0-25.6-10.24-25.6-25.6s10.24-25.6 25.6-25.6h512c15.36 0 25.6 10.24 25.6 25.6s-10.24 25.6-25.6 25.6z" />
<glyph unicode="&#xe90d;" glyph-name="format" horiz-adv-x="1099" d="M491.008 290.304h49.664c13.312 0 23.040 7.68 23.040 19.456 0 7.68 0 9.216 0 19.968 0 11.776-10.24 19.456-20.992 19.456h-52.736c-12.288 0-22.016-8.704-22.016-22.016 0-4.096 0-9.728 0-14.336-0.512-13.824 10.752-23.040 23.040-22.528zM629.76 289.792h82.944c20.48 0 28.16 9.216 28.16 22.016 0 5.632 0 10.24 0 15.872 0 12.8-11.264 20.992-24.064 20.992h-94.72c-12.288 0-21.504-9.728-21.504-19.456 0-6.656 0-11.264 0-17.92 0-15.872 10.752-21.504 29.184-21.504zM436.736 762.368c-17.408 0-33.28-6.144-44.032-24.576-22.528-38.4-139.264-243.712-141.312-247.808-7.168-14.336-10.24-20.992-10.24-51.712 0-39.936 0-130.56 0-141.312 0-65.024 50.176-113.152 126.976-115.2h351.744c80.384 0 128.512 48.128 128.512 119.296 0 23.552-0.512 78.848 0 136.704 0 24.576-3.584 30.72-15.872 51.712-7.68 13.824-124.416 227.328-136.192 247.808-10.24 18.944-22.528 25.088-45.056 25.088s-214.528 0-214.528 0zM711.168 219.648h-330.24c-56.32 0-98.304 32.768-98.304 80.896v84.992c0 25.088 14.848 40.448 40.448 40.448h446.464c30.208 0 40.448-11.264 40.448-34.304v-90.112c-0.512-47.616-44.032-81.92-98.816-81.92zM454.656 723.968c19.456 0 159.744 0 181.76 0s23.552-3.072 32.256-17.92c10.24-18.432 116.736-208.384 124.416-221.696 7.168-12.8 1.536-18.432-5.12-18.432-25.6 0-459.264 0-487.424 0-10.752 0-11.264 8.192-6.144 17.92 9.216 17.408 118.272 203.776 129.536 222.208 6.144 10.24 11.264 17.92 30.72 17.92z" />
<glyph unicode="&#xe90e;" glyph-name="dms-select" d="M512 960c-282.794 0-511.979-229.226-511.979-512.021 0-282.753 229.185-511.979 511.979-511.979s511.979 229.226 511.979 511.979c0 282.794-229.185 512.021-511.979 512.021zM815.372 641.049l-346.651-461.202c-10.83-14.371-27.326-23.41-45.279-24.743-1.583-0.125-3.124-0.167-4.665-0.167-16.329 0-32.074 6.373-43.779 17.912l-192.903 189.446c-24.618 24.201-24.993 63.732-0.791 88.35 24.201 24.66 63.732 24.951 88.35 0.833l142.043-139.502 303.788 404.218c20.744 27.575 59.9 33.116 87.517 12.413 27.534-20.827 33.116-59.983 12.371-87.558z" />
<glyph unicode="&#xe90f;" glyph-name="close" d="M512-64c-278.123 0-505.679 227.556-505.679 505.679 0 120.099 44.247 240.198 126.42 335.012 25.284 25.284 63.21 31.605 88.494 6.321s31.605-63.21 6.321-88.494c-63.21-69.531-94.815-158.025-94.815-252.84 0-208.593 170.667-379.259 379.259-379.259s379.259 170.667 379.259 379.259c0 94.815-31.605 183.309-94.815 252.84-25.284 25.284-18.963 63.21 6.321 88.494s63.21 18.963 88.494-6.321c82.173-94.815 126.42-208.593 126.42-335.012 0-278.123-227.556-505.679-505.679-505.679zM575.21 580.741c0-31.605-25.284-63.21-63.21-63.21v0c-37.926 0-63.21 25.284-63.21 63.21v316.049c0 31.605 25.284 63.21 63.21 63.21v0c31.605 0 63.21-25.284 63.21-63.21v-316.049z" />
<glyph unicode="&#xe910;" glyph-name="restore" d="M890.4 608c11.2-28.8 4.8-61.6-16-84-39.2-42.4-39.2-110.4 0-154.4 20.8-22.4 27.2-55.2 16-84-14.4-36-34.4-71.2-58.4-100.8-19.2-24-50.4-34.4-79.2-28.8-28.8 6.4-56.8 1.6-82.4-12.8s-42.4-37.6-52-64.8c-9.6-29.6-34.4-50.4-64.8-55.2-19.2-1.6-39.2-3.2-58.4-3.2s-39.2 1.6-58.4 4.8c-29.6 4.8-55.2 25.6-64.8 55.2-17.6 56.8-76 89.6-134.4 77.6-29.6-6.4-60 4.8-79.2 28.8-24 31.2-44 64.8-58.4 100.8-11.2 28.8-4.8 61.6 16 84 39.2 42.4 39.2 110.4 0 154.4-20.8 22.4-27.2 55.2-16 84 14.4 36 34.4 71.2 58.4 100.8 19.2 24 50.4 34.4 80.8 28.8 28.8-6.4 56.8-1.6 82.4 12.8s42.4 37.6 52 64.8c9.6 29.6 34.4 50.4 64.8 55.2 37.6 4.8 77.6 4.8 116.8 0 29.6-4.8 55.2-25.6 64.8-55.2 8-27.2 27.2-50.4 52-64.8 25.6-14.4 53.6-19.2 82.4-12.8 29.6 6.4 61.6-4.8 79.2-28.8 22.4-32.8 43.2-66.4 56.8-102.4v0zM832 584c-12.8 29.6-29.6 60-50.4 85.6-3.2 4.8-9.6 6.4-16 4.8-42.4-9.6-88-3.2-126.4 19.2-39.2 21.6-67.2 58.4-80 100.8-1.6 6.4-6.4 11.2-12.8 11.2-32.8 4.8-66.4 4.8-99.2 0-6.4-1.6-11.2-4.8-12.8-11.2-12.8-42.4-40.8-79.2-80.8-100.8-37.6-22.4-84-28.8-128-19.2-6.4 1.6-12.8-1.6-16-4.8-20.8-27.2-37.6-55.2-50.4-85.6-1.6-6.4-1.6-12.8 3.2-17.6 61.6-68 61.6-172 0-240-4.8-4.8-4.8-11.2-3.2-16 12.8-31.2 29.6-60 48.8-85.6 3.2-4.8 11.2-6.4 16-6.4 89.6 20.8 180-32.8 208-120 1.6-6.4 6.4-9.6 12.8-11.2 16-1.6 32.8-3.2 48.8-3.2 17.6 0 32.8 1.6 50.4 3.2 6.4 1.6 11.2 4.8 12.8 11.2 12.8 42.4 40.8 79.2 80.8 100.8 37.6 22.4 84 28.8 128 19.2 6.4-1.6 12.8 1.6 16 4.8 20.8 27.2 37.6 55.2 50.4 85.6 1.6 4.8 1.6 12.8-3.2 17.6-61.6 68-61.6 172 0 240 4.8 5.6 4.8 12 3.2 17.6v0zM631.2 532c-1.6 4-4.8 8-8.8 9.6-8 3.2-18.4-0.8-22.4-8.8l-2.4-5.6c-24 40-68 65.6-115.2 65.6-68.8 0-121.6-47.2-131.2-116.8-1.6-9.6 4.8-17.6 14.4-19.2 0.8 0 1.6 0 2.4 0 8 0 15.2 6.4 16.8 14.4 7.2 52.8 45.6 87.2 98.4 87.2 33.6 0 64.8-17.6 83.2-44.8l-6.4 3.2c-8 3.2-18.4-0.8-22.4-8.8-1.6-4-1.6-8.8 0-12.8s4.8-7.2 8.8-9.6l43.2-18.4 1.6-0.8c3.2-0.8 4.8-1.6 8.8-0.8l2.4 0.8c0.8 0 1.6 0.8 1.6 0.8l0.8 0.8c0.8 0 0.8 0.8 1.6 1.6l0.8 0.8c0.8 0.8 0.8 0.8 2.4 2.4 0.8 0.8 0.8 1.6 1.6 2.4l18.4 44c2.4 4.8 3.2 8.8 1.6 12.8zM599.2 438.4c-9.6 1.6-17.6-5.6-19.2-14.4-7.2-52.8-45.6-87.2-98.4-87.2-33.6 0-64.8 17.6-83.2 44.8l5.6-2.4c8-3.2 18.4 0.8 22.4 8.8 1.6 4 1.6 8.8 0 12.8s-4.8 7.2-8.8 9.6l-43.2 18.4-3.2 0.8c-0.8 0-1.6 0-2.4 0h-0.8l-5.6-0.8c-0.8 0-1.6-0.8-2.4-0.8s-1.6-0.8-1.6-0.8l-1.6-0.8v-0.8c-0.8-0.8-2.4-1.6-2.4-2.4l-0.8-0.8c-0.8-0.8-0.8-1.6-0.8-1.6l-19.2-44c-4-8.8 0-18.4 8.8-22.4 8-3.2 18.4 0.8 22.4 8.8l2.4 5.6c24-40 68-65.6 115.2-65.6 68.8 0 121.6 47.2 131.2 116.8 0.8 8.8-5.6 16.8-14.4 18.4z" />
<glyph unicode="&#xe911;" glyph-name="self-test" d="M456 252c-6.3 0-12.7 2.1-17.9 6.5-11.9 9.9-13.5 27.6-3.6 39.4l113.7 136.4-129.1 43c-8.8 3-15.5 10-18 18.9-2.6 8.9-0.5 18.5 5.4 25.6l140 168c9.9 11.8 27.6 13.4 39.4 3.6 11.9-9.9 13.5-27.6 3.6-39.4l-113.7-136.4 129.1-43c8.8-3 15.5-10 18-18.9 2.6-8.9 0.5-18.5-5.4-25.6l-140-168c-5.5-6.7-13.5-10.1-21.5-10.1zM512 840l336-145.7v-188.7c0-304.3-257.2-420.9-336-449.4-78.8 28.5-336 145.2-336 449.4l0.2 189.3 335.8 145.1zM512 896c-7.5 0-15-1.5-22.1-4.6l-336-145.3c-20.6-8.9-33.9-29.3-33.9-51.9v-188.7c0-344.2 294.3-473.7 372.9-502.1 6.3-2.3 12.7-3.4 19.1-3.4s12.8 1.1 19.1 3.4c78.6 28.4 372.9 157.9 372.9 502.1v188.7c0 22.6-13.4 43-33.9 51.9l-336 145.3c-7.1 3.1-14.6 4.6-22.1 4.6z" />
<glyph unicode="&#xe912;" glyph-name="reset" d="M904 629.6c-4.8 1.6-10.4 3.2-15.2 3.2-16 0-30.4-9.6-36-22.4l-20.8-42.4c-47.2 147.2-184.8 249.6-344 249.6-198.4 0-360-161.6-360-360s161.6-360 360-360c89.6 0 175.2 33.6 241.6 94.4 14.4 14.4 16 38.4 4 55.2l-0.8 0.8c-14.4 14.4-37.6 16.8-56 3.2-52-47.2-120.8-73.6-188.8-73.6-154.4 0-280 125.6-280 280s125.6 280 280 280c127.2 0 236-84 268.8-204l-56.8 28.8c-6.4 4-12.8 5.6-20 5.6-14.4 0-28-8-35.2-20.8-11.2-19.2-4.8-44 16-56l128-67.2c8-4 18.4-4 24.8-4 5.6 0 11.2 0 16.8 4 13.6 4.8 23.2 15.2 28.8 23.2l65.6 130.4c8.8 20.8-0.8 44.8-20.8 52z" />
<glyph unicode="&#xe913;" glyph-name="equipment-entry" d="M678.4 499.2c-106.24 0-192-85.76-192-192s85.76-192 192-192c106.24 0 192 85.76 192 192s-87.040 192-192 192zM780.8 281.6h-76.8v-76.8c0-14.080-11.52-25.6-25.6-25.6s-25.6 11.52-25.6 25.6v76.8h-76.8c-14.080 0-25.6 11.52-25.6 25.6s11.52 25.6 25.6 25.6h76.8v76.8c0 14.080 11.52 25.6 25.6 25.6s25.6-11.52 25.6-25.6v-76.8h76.8c14.080 0 25.6-11.52 25.6-25.6s-11.52-25.6-25.6-25.6zM517.12 486.4h-222.72v-25.6h197.12c7.68 12.8 16.64 12.8 25.6 25.6zM462.080 409.6c3.84 12.8 8.96 25.6 14.080 25.6h-143.36v-89.6h108.8c1.28 12.8 2.56 12.8 5.12 25.6h-88.32v38.4h103.68zM422.4 128v102.4h33.28c-5.12 12.8-8.96 25.6-11.52 38.4-1.28 3.84-1.28 8.96-2.56 12.8v0c-1.28 5.12-1.28 8.96-1.28 14.080 0 3.84-1.28 7.68-1.28 11.52v0c0 2.56 0 6.4 0 10.24 0 1.28 0 2.56 0 2.56h-128c-20.48 12.8-87.040 83.2-102.4 97.28-3.84 3.84-10.24 10.24-16.64 17.92v0 0c-17.92 20.48-40.96 51.2-43.52 89.6h674.56c-1.28-12.8-5.12-21.76-8.96-32 10.24-8.96 20.48-16.64 29.44-26.88 8.96 20.48 14.080 43.52 15.36 69.12 0 2.56 0 6.4 0 8.96s0 5.12 0 7.68v81.92c0 2.56 0 6.4-1.28 7.68-11.52 69.12-102.4 177.92-199.68 177.92h-345.6c-99.84 0-199.68-108.8-209.92-180.48 0-1.28 0-6.4 0-7.68v-81.92c0-2.56 0-3.84 0-7.68s0-5.12 0-7.68c2.56-47.36 29.44-87.040 51.2-113.92v-97.28c0-52.48 29.44-93.44 69.12-93.44h161.28v-120.32c0-10.24 5.12-20.48 15.36-20.48h174.080c7.68 0 12.8 3.84 16.64 10.24-19.2 7.68-37.12 16.64-53.76 28.16h-113.92zM312.32 780.8h345.6c69.12 0 139.52-76.8 158.72-128h-664.32c19.2 51.2 90.88 128 160 128zM140.8 614.4h678.4v-51.2h-678.4v51.2zM384 268.8h-161.28c-15.36 0-30.72 23.040-30.72 55.040v56.32c26.88-25.6 97.28-93.44 98.56-93.44 3.84-3.84 8.96-5.12 12.8-5.12h80.64v-12.8z" />
<glyph unicode="&#xe914;" glyph-name="equipment-select" d="M704 499.2c-106.24 0-192-85.76-192-192s85.76-192 192-192 192 85.76 192 192c0 106.24-87.040 192-192 192zM820.48 362.24l-65.28-84.48v-85.76c0-10.24-8.96-19.2-19.2-19.2s-19.2 8.96-19.2 19.2v92.16c0 3.84 2.56 8.96 5.12 11.52l62.72 81.92h-161.28l64-80.64c2.56-3.84 5.12-7.68 5.12-11.52v-47.36c0-10.24-8.96-19.2-19.2-19.2s-20.48 7.68-20.48 17.92v40.96l-65.28 83.2c-2.56 3.84-5.12 10.24-5.12 15.36 0 23.040 16.64 44.8 38.4 44.8h165.12c21.76 0 38.4-21.76 38.4-44.8 0-3.84-1.28-10.24-3.84-14.080zM448 128v102.4h33.28c-5.12 12.8-8.96 25.6-11.52 38.4-1.28 3.84-1.28 8.96-2.56 12.8v0c-1.28 5.12-1.28 8.96-1.28 14.080 0 3.84-1.28 7.68-1.28 11.52v0c0 2.56 0 6.4 0 10.24 0 1.28 0 2.56 0 2.56h-128c-20.48 12.8-87.040 83.2-102.4 97.28-3.84 3.84-10.24 10.24-16.64 17.92v0 0c-17.92 20.48-40.96 51.2-43.52 89.6h674.56c-1.28-12.8-5.12-21.76-8.96-32 10.24-8.96 19.2-16.64 28.16-26.88 8.96 20.48 14.080 43.52 15.36 69.12 0 2.56 0 3.84 1.28 8.96 0 2.56 0 5.12 0 7.68v81.92c0 2.56 1.28 6.4 0 7.68-11.52 69.12-103.68 177.92-200.96 177.92h-345.6c-98.56 0-198.4-108.8-208.64-180.48 0-1.28-1.28-6.4-1.28-7.68v-81.92c0-2.56 0-3.84 0-7.68 0-2.56 0-5.12 0-7.68 2.56-47.36 29.44-87.040 49.92-113.92v-97.28c0-52.48 29.44-93.44 69.12-93.44h162.56v-120.32c0-10.24 5.12-20.48 15.36-20.48h174.080c7.68 0 12.8 3.84 16.64 10.24-19.2 7.68-37.12 16.64-53.76 28.16h-113.92zM337.92 780.8h345.6c69.12 0 139.52-76.8 158.72-128h-664.32c19.2 51.2 90.88 128 160 128zM166.4 614.4h678.4v-51.2h-678.4v51.2zM409.6 268.8h-161.28c-15.36 0-30.72 23.040-30.72 55.040v56.32c26.88-25.6 97.28-93.44 98.56-93.44 3.84-3.84 8.96-5.12 12.8-5.12h80.64v-12.8zM542.72 486.4h-222.72v-25.6h197.12c7.68 12.8 16.64 12.8 25.6 25.6zM487.68 409.6c3.84 12.8 8.96 25.6 14.080 25.6h-143.36v-89.6h108.8c1.28 12.8 2.56 12.8 5.12 25.6h-88.32v38.4h103.68z" />
<glyph unicode="&#xe915;" glyph-name="closed" d="M1017.6-16l-467.2 464 467.2 464c9.6 9.6 9.6 28.8 0 38.4s-28.8 9.6-38.4 0l-467.2-464-464 467.2c-9.6 9.6-28.8 9.6-38.4 0s-9.6-28.8 0-38.4l464-467.2-467.2-464c-9.6-9.6-9.6-28.8 0-38.4s28.8-9.6 38.4 0l467.2 464 464-464c9.6-9.6 28.8-9.6 38.4 0 12.8 9.6 12.8 25.6 3.2 38.4z" />
<glyph unicode="&#xe916;" horiz-adv-x="1466" d="M616.963 346.406c-189.48 0-343.036-155.008-343.036-346.189h686.065c0 191.179-153.55 346.189-343.030 346.189z" />
<glyph unicode="&#xe917;" horiz-adv-x="1466" d="M575.325-13.625h-368.889c-0.001 0-0.003 0-0.005 0-7.637 0-13.829 6.191-13.829 13.829 0 0.004 0 0.009 0 0.013v-0.001c0 173.457 111.065 324.946 276.511 376.894 7.285 2.308 15.055-1.701 17.361-8.985 2.305-7.279-1.819-15.049-8.985-17.353-149.544-46.85-251.387-181.229-257.089-336.722h354.807c0.003 0 0.006 0 0.009 0 7.635 0 13.824-6.189 13.824-13.824 0-0.003 0-0.005 0-0.008v0c0-7.653-6.188-13.842-13.715-13.842z" />
<glyph unicode="&#xe918;" horiz-adv-x="1466" d="M660.906 738.959c44.304-37.025 72.464-92.739 72.464-155.008 0-111.675-90.428-202.104-202.105-202.104-23.79 0-46.733 4.126-67.851 11.771 35.076-29.372 80.232-47.096 129.634-47.096 111.677 0 202.104 90.435 202.104 202.104-0.118 87.761-56.075 162.411-134.245 190.332z" />
<glyph unicode="&#xe919;" horiz-adv-x="1466" d="M733.368 583.826c0 62.275-28.16 117.989-72.464 155.008-21.242 7.527-44.067 11.777-67.859 11.777-111.671 0-202.104-90.433-202.104-202.104 0-62.269 28.158-117.989 72.47-155.010 21.242-7.527 44.061-11.777 67.851-11.777 111.554 0.002 202.105 90.554 202.105 202.105z" />
<glyph unicode="&#xe91a;" horiz-adv-x="1466" d="M575.325 332.683c-128.787 0-233.541 104.761-233.541 233.547 0 30.832 5.945 60.811 17.598 89.093 2.916 7.042 11.048 10.438 18.089 7.527 7.042-2.916 10.438-11.048 7.527-18.089-10.319-24.881-15.54-51.344-15.54-78.531 0-113.614 92.372-205.993 205.991-205.993 113.614 0 205.987 92.378 205.987 205.993s-92.372 205.985-205.987 205.985c-44.914 0-87.517-14.2-123.328-41.026-6.069-4.611-14.812-3.277-19.299 2.792-4.617 6.069-3.277 14.812 2.792 19.305 40.659 30.464 88.976 46.486 139.835 46.486 128.787 0 233.541-104.753 233.541-233.541-0.118-128.786-104.878-233.547-233.665-233.547z" />
<glyph unicode="&#xe91b;" horiz-adv-x="1466" d="M391.914 681.664c-2.305 0-4.491 0.61-6.679 1.701-6.673 3.639-9.104 12.020-5.459 18.693 4.056 7.235 9.342 13.297 15.637 18.104l0.141 0.103c6.069 4.611 14.812 3.277 19.305-2.792 4.611-6.069 3.277-14.81-2.792-19.297-3.351-2.53-6.085-5.69-8.063-9.321l-0.076-0.152c-2.423-4.493-7.159-7.040-12.014-7.040z" />
<glyph unicode="&#xe91c;" horiz-adv-x="1466" d="M220.032 452.129c-20.631 0-37.386 16.75-37.386 37.382 0 20.638 16.756 37.388 37.386 37.388 20.638 0 37.388-16.75 37.388-37.388 0-20.512-16.75-37.382-37.388-37.382zM220.032 508.572c-10.438 0-19.054-8.5-19.054-19.062 0-10.438 8.492-19.054 19.054-19.054 10.438 0 19.062 8.498 19.062 19.054-0.124 10.562-8.624 19.062-19.062 19.062zM190.659 673.413h-16.388v16.382c0 4.374-3.52 7.895-7.888 7.895s-7.888-3.52-7.888-7.895v-16.382h-16.388c-0.004 0-0.009 0-0.014 0-4.349 0-7.875-3.526-7.875-7.875 0-0.007 0-0.014 0-0.021v0.001c0-0.004 0-0.009 0-0.014 0-4.349 3.526-7.875 7.875-7.875 0.005 0 0.010 0 0.014 0h16.387v-16.388c0-4.368 3.52-7.888 7.888-7.888s7.888 3.52 7.888 7.888v16.388h16.388c0.004 0 0.009 0 0.014 0 4.349 0 7.875 3.526 7.875 7.875 0 0.005 0 0.010 0 0.014v-0.001c0 0.006 0 0.013 0 0.020 0 4.349-3.526 7.875-7.875 7.875-0.005 0-0.010 0-0.014 0h0.001zM1090.363 672.073h-16.388v16.388c0 4.368-3.52 7.888-7.888 7.888s-7.888-3.52-7.888-7.888v-16.388h-16.388c-4.368 0-7.888-3.52-7.888-7.888s3.52-7.888 7.888-7.888h16.388v-16.388c0-4.368 3.52-7.888 7.888-7.888s7.888 3.52 7.888 7.888v16.388h16.388c4.368 0 7.888 3.52 7.888 7.888s-3.52 7.888-7.888 7.888z" />
<glyph unicode="&#xe91d;" horiz-adv-x="1466" d="M1040.836 507.6h-19.056v19.056c0 5.103-4.132 9.228-9.228 9.228s-9.222-4.126-9.222-9.228v-19.056h-19.062c-0.001 0-0.003 0-0.005 0-5.091 0-9.218-4.127-9.218-9.218 0-0.002 0-0.003 0-0.005v0c0-0.003 0-0.006 0-0.009 0-5.092 4.128-9.219 9.219-9.219 0.001 0 0.002 0 0.003 0h19.062v-19.056c0-5.097 4.126-9.228 9.222-9.228s9.228 4.132 9.228 9.228v19.056h19.056c0.001 0 0.002 0 0.003 0 5.092 0 9.219 4.128 9.219 9.219 0 0.003 0 0.006 0 0.010v-0.001c0 0.001 0 0.003 0 0.005 0 5.091-4.127 9.218-9.218 9.218-0.002 0-0.003 0-0.005 0v0zM301.481 756.681c0-7.64 6.2-13.839 13.839-13.839s13.839 6.2 13.839 13.839-6.2 13.839-13.839 13.839-13.839-6.2-13.839-13.839zM913.868 683.85c0 0 0-0.001 0-0.002 0-10.19 8.261-18.45 18.45-18.45s18.45 8.261 18.45 18.45c0 6.795-3.673 12.731-9.141 15.933l-0.087 0.047c-2.646 1.553-5.827 2.47-9.222 2.47-10.189 0-18.45-8.26-18.45-18.449v0z" />
<glyph unicode="&#xe91e;" horiz-adv-x="1466" d="M797.219 865.684c0 0 0-0.001 0-0.002 0-10.19 8.261-18.45 18.45-18.45s18.45 8.261 18.45 18.45c0 6.795-3.673 12.731-9.141 15.933l-0.087 0.047c-2.646 1.553-5.827 2.47-9.222 2.47-10.189 0-18.45-8.26-18.45-18.449v0z" />
<glyph unicode="&#xe91f;" horiz-adv-x="1466" d="M590.742 857.309c-20.632 0-37.388 16.751-37.388 37.388 0 20.632 16.756 37.388 37.388 37.388 20.637 0 37.386-16.756 37.386-37.388 0.118-20.637-16.75-37.388-37.386-37.388zM590.742 913.752c-10.438 0-19.056-8.5-19.056-19.056 0-10.444 8.494-19.060 19.056-19.060 0.013 0 0.028 0 0.043 0 10.5 0 19.012 8.512 19.012 19.012 0 0.017 0 0.034 0 0.051v-0.003c0 0.013 0 0.029 0 0.044 0 10.5-8.512 19.012-19.012 19.012-0.015 0-0.030 0-0.045 0h0.002z" />
<glyph unicode="&#xe920;" horiz-adv-x="1466" d="M370.305 945.918c-1.938 1.944-5.215 1.944-7.159 0-0.973-0.973-1.458-2.306-1.458-3.64 0-1.332 0.486-2.672 1.458-3.645l16.387-16.382c0.973-0.971 2.188-1.458 3.64-1.458 1.34 0 2.672 0.487 3.645 1.458 1.938 1.939 1.938 5.217 0 7.16l-16.513 16.507zM413.519 902.703c-0.973 0.973-2.182 1.458-3.64 1.458-1.334 0-2.672-0.486-3.639-1.458-1.944-1.938-1.944-5.215 0-7.159l16.382-16.388c0.971-0.973 2.186-1.452 3.645-1.452 1.334 0 2.667 0.479 3.64 1.452 0.971 0.973 1.457 2.186 1.457 3.645 0 1.334-0.486 2.667-1.457 3.64l-16.388 16.262zM409.879 920.793c1.334 0 2.667 0.487 3.64 1.458l16.388 16.382c0.971 0.973 1.457 2.188 1.457 3.645 0 1.334-0.486 2.667-1.457 3.64-1.945 1.944-5.223 1.944-7.16 0l-16.388-16.388c-1.944-1.938-1.944-5.215 0-7.16 0.848-0.971 2.186-1.576 3.52-1.576zM379.409 902.703l-16.382-16.381c-0.971-0.973-1.458-2.312-1.458-3.646s0.487-2.667 1.458-3.639c0.967-0.973 2.182-1.458 3.64-1.458 1.334 0 2.673 0.486 3.639 1.458l16.388 16.388c1.944 1.938 1.944 5.215 0 7.159-1.938 2.064-5.339 2.064-7.285 0.118zM382.568 912.537c-0.017 2.808-2.289 5.080-5.095 5.097h-23.188c-2.792 0-5.098-2.305-5.098-5.097s2.306-5.097 5.098-5.097h23.186c2.91 0 5.097 2.305 5.097 5.097zM438.524 917.634h-23.18c-2.798 0-5.103-2.305-5.103-5.097s2.305-5.097 5.103-5.097h23.18c2.792 0 5.098 2.305 5.098 5.097s-2.306 5.097-5.098 5.097zM396.527 959.757c-2.792 0-5.098-2.306-5.098-5.097v-23.187c0-2.79 2.306-5.097 5.098-5.097 2.79 0 5.097 2.308 5.097 5.097v23.187c0 2.79-2.306 5.097-5.097 5.097zM396.527 898.704c-2.792 0-5.098-2.312-5.098-5.104v-23.062c0-2.792 2.306-5.097 5.098-5.097 2.808 0.018 5.079 2.289 5.097 5.095v23.064c0 2.792-2.306 5.104-5.097 5.104z" />
<glyph unicode="&#xe921;" horiz-adv-x="1466" d="M1129.931-13.625h-32.895c-0.002 0-0.004 0-0.006 0-7.64 0-13.833 6.193-13.833 13.833 0 0.003 0 0.005 0 0.008v0c0 7.646 6.312 13.832 13.839 13.832h32.895c0.004 0 0.009 0 0.014 0 7.636 0 13.826-6.19 13.826-13.826 0-0.002 0-0.004 0-0.006v0c0-0.003 0-0.007 0-0.011 0-7.638-6.192-13.83-13.83-13.83-0.003 0-0.006 0-0.010 0v0zM113.217-13.625h-41.999c-0.003 0-0.006 0-0.009 0-7.638 0-13.83 6.192-13.83 13.83 0 0.004 0 0.007 0 0.011v-0.001c0 0.002 0 0.004 0 0.006 0 7.636 6.19 13.826 13.826 13.826 0.005 0 0.010 0 0.014 0h42.117c0.004 0 0.009 0 0.014 0 7.636 0 13.826-6.19 13.826-13.826 0-0.002 0-0.004 0-0.006v0c0-7.652-6.312-13.841-13.958-13.841z" />
<glyph unicode="&#xe922;" horiz-adv-x="1466" d="M1044.356-13.625h-887.564c-0.002 0-0.005 0-0.008 0-7.64 0-13.833 6.193-13.833 13.833 0 0.003 0 0.005 0 0.008v0c0 7.646 6.194 13.832 13.841 13.832h887.564c7.646 0 13.839-6.186 13.839-13.832 0-0.002 0-0.005 0-0.008 0-7.64-6.193-13.833-13.833-13.833-0.002 0-0.004 0-0.006 0v0z" />
<glyph unicode="&#xe923;" horiz-adv-x="1466" d="M674.62 125.239c0-96.064 77.874-173.946 173.946-173.946 96.065 0 173.939 77.882 173.939 173.946s-77.874 173.947-173.939 173.947c-96.071-0.002-173.946-77.882-173.946-173.947z" />
<glyph unicode="&#xe924;" horiz-adv-x="1466" d="M840.427-62.546c-113.004 0-205.014 92.011-205.014 205.020s92.009 205.020 205.014 205.020c113.009 0 205.020-91.887 205.020-204.896 0-113.133-91.885-205.144-205.020-205.144zM840.427 319.939c-97.831 0-177.46-79.628-177.46-177.466s79.628-177.466 177.46-177.466c97.836 0 177.466 79.628 177.466 177.466 0 97.962-79.63 177.466-177.466 177.466z" />
<glyph unicode="&#xe925;" horiz-adv-x="1466" d="M826.108 43.304c-3.402 0-6.679 1.215-9.228 3.52l-88.732 79.628c-5.702 5.097-6.188 13.839-1.091 19.543 2.543 2.841 6.221 4.62 10.314 4.62 3.552 0 6.791-1.34 9.24-3.542l-0.013 0.011 77.566-69.672 105.969 138.62c4.611 6.069 13.354 7.162 19.305 2.551 6.069-4.613 7.16-13.354 2.549-19.3l-115.073-150.395c-2.311-3.035-5.826-4.98-9.714-5.342-0.246-0.241-0.607-0.241-1.092-0.241z" />
<glyph unicode="&#xe926;" glyph-name="registration" d="M636 432h-296c-6.4 0-12 5.6-12 12s5.6 12 12 12h296c6.4 0 12-5.6 12-12s-5.6-12-12-12zM636 336h-296c-6.4 0-12 5.6-12 12s5.6 12 12 12h296c6.4 0 12-5.6 12-12s-5.6-12-12-12zM636 240h-296c-6.4 0-12 5.6-12 12s5.6 12 12 12h296c6.4 0 12-5.6 12-12s-5.6-12-12-12zM682.4 664h-58.4v56h-56.8c-1.6 32-28.8 56-61.6 56h-20c-32.8 0-59.2-24-61.6-56h-72v-56h-48c-48 0-88-29.6-88-76.8v-379.2c0-48 40-96 88-96h378.4c48 0 85.6 48.8 85.6 96v379.2c0 47.2-37.6 76.8-85.6 76.8zM376 696h72v28.8c0 20.8 17.6 27.2 37.6 27.2h20c20.8 0 30.4-6.4 30.4-27.2v-28.8h64v-96h-224v96zM744 208c0-34.4-26.4-72-61.6-72h-378.4c-34.4 0-64 37.6-64 72v379.2c0 34.4 29.6 52.8 64 52.8h48v-64h272v64h58.4c34.4 0 61.6-18.4 61.6-52.8v-379.2z" />
<glyph unicode="&#xe927;" glyph-name="record" d="M748.8 592h-251.2c-16 24-69.6 112.8-72 116.8l-4 3.2h-152.8c-22.4 0-44.8-16-44.8-38.4v-460.8c0-17.6 18.4-28.8 35.2-28.8h489.6c17.6 0 27.2 12 27.2 28.8v345.6c0 17.6-10.4 33.6-27.2 33.6zM268.8 688h139.2c10.4-16 43.2-72 60.8-96h-209.6c-2.4 0-3.2-2.4-11.2-3.2v84.8c0 8.8 12 14.4 20.8 14.4zM752 212.8c0-4 0.8-4.8-3.2-4.8h-489.6c-4 0-11.2 0.8-11.2 4.8v345.6c0 4 7.2 9.6 11.2 9.6h489.6c4 0 3.2-5.6 3.2-9.6v-345.6zM634.4 275.2c-8 48.8-43.2 88.8-87.2 105.6 25.6 14.4 43.2 41.6 43.2 72.8 0 46.4-37.6 84-84 84s-84-37.6-84-84c0-30.4 16.8-57.6 41.6-72-45.6-16-82.4-57.6-90.4-107.2-0.8-7.2 0.8-12.8 5.6-18.4s12-7.2 20-7.2h208.8c8 0 15.2 1.6 20.8 8 4.8 4.8 7.2 10.4 5.6 18.4zM446.4 453.6c0 32.8 27.2 60 60 60s60-27.2 60-60-27.2-60-60-60-60 27.2-60 60zM610.4 271.2c0 0-0.8 0.8-2.4 0.8h-208.8c-0.8 0-1.6-1.6-1.6-0.8-0.8 0.8-0.8 0-0.8 0 7.2 44.8 49.6 93.6 107.2 93.6 56.8 0 99.2-48 106.4-92.8 0.8 0 0.8 0 0-0.8z" />
<glyph unicode="&#xe928;" glyph-name="technical-feedback" d="M504 164c-73.6 0-143.2 28.8-195.2 80.8-108 108-108 282.4 0 390.4 52 52 121.6 80.8 195.2 80.8s143.2-28.8 195.2-80.8c108-108 108-282.4 0-390.4-52-52-121.6-80.8-195.2-80.8zM504 692c-67.2 0-130.4-26.4-178.4-73.6-98.4-98.4-98.4-258.4 0-356.8 48-47.2 111.2-73.6 178.4-73.6s130.4 26.4 178.4 73.6c98.4 98.4 98.4 258.4 0 356.8-48 47.2-111.2 73.6-178.4 73.6zM644 371.2l-80.8 80.8c0.8 1.6 1.6 4 2.4 5.6 1.6 4-0.8 8.8-4.8 10.4s-8.8-0.8-10.4-4.8c-5.6-16-14.4-30.4-26.4-42.4-42.4-42.4-110.4-42.4-152.8 0-29.6 29.6-39.2 73.6-25.6 112.8 12-10.4 38.4-38.4 60.8-64.8 1.6-1.6 3.2-2.4 5.6-2.4s4 0.8 5.6 2.4l60 60c1.6 1.6 2.4 4 2.4 5.6 0 2.4-0.8 4-2.4 5.6-25.6 22.4-53.6 48-64 60 38.4 12.8 80.8 3.2 110.4-26.4 27.2-27.2 34.4-46.4 30.4-76-0.8-4 2.4-8.8 7.2-8.8 4-0.8 8.8 2.4 8.8 7.2 5.6 40-9.6 64-35.2 89.6-36 36-89.6 46.4-136.8 26.4-2.4-0.8-4.8-4-4.8-6.4-0.8-4.8-1.6-10.4 67.2-72l-48-48c-60.8 68.8-67.2 68-72 67.2-2.4-0.8-5.6-2.4-6.4-4.8-20.8-46.4-10.4-102.4 25.6-138.4 24-24 56-36 88-36 15.2 0 30.4 3.2 44.8 8l80.8-80.8c9.6-9.6 21.6-13.6 33.6-13.6 12.8 0 26.4 4.8 36 15.2 19.2 18.4 20 49.6 0.8 68.8zM632 312c-13.6-13.6-34.4-13.6-47.2-0.8l-76.8 76.8c9.6 5.6 19.2 12 28 20.8 8 8 15.2 17.6 20.8 28l76.8-76.8c12-12.8 11.2-34.4-1.6-48z" />
<glyph unicode="&#xe929;" glyph-name="service" horiz-adv-x="1025" d="M907.277-64c-31.26 0-60.632 12.172-82.705 34.274l-173.073 173.074-25.582-25.575-63.043 63.044 76.761 76.761-90.457 90.416-123.681-123.676c9.191-33.874 10.045-69.355 2.381-103.581-8.94-39.92-29.1-76.455-58.305-105.656-40.785-40.81-95.058-63.287-152.817-63.287-29.74 0-58.623 5.956-85.849 17.703l-60.377 25.945 102.479 102.479 0.386 28.397-25.3-0.339-103.976-103.975-26.076 60.175c-35.541 82.061-17.694 175.868 45.464 238.987 40.811 40.827 95.092 63.318 152.834 63.318 19.285 0 38.272-2.512 56.644-7.481l123.59 123.591-179.97 179.94-25.558-25.58-178.203 178.178 114.299 114.137 178.115-178.115-25.594-25.572 179.973-179.944 123.57 123.567c-9.259 33.92-10.153 69.452-2.499 103.73 8.925 39.962 29.104 76.534 58.356 105.765 40.773 40.815 95.048 63.302 152.812 63.302 29.854 0 58.842-5.991 86.16-17.805l60.196-26.086-103.985-103.962-0.355-25.313 28.382 0.386 102.463 102.463 25.987-60.383c35.339-81.917 17.462-175.605-45.553-238.658-40.862-40.821-95.148-63.294-152.875-63.294-19.182 0-38.088 2.492-56.411 7.423l-123.665-123.676 90.461-90.446 76.709 76.73 63.048-63.045-25.595-25.612 173.112-173.11c45.59-45.591 45.598-119.766 0.016-165.351-22.092-22.094-51.46-34.26-82.693-34.26zM663.392 206.394l198.663-198.663c12.073-12.089 28.128-18.74 45.222-18.74 17.078 0 33.138 6.654 45.222 18.74 12.044 12.044 18.674 28.096 18.672 45.2-0.003 17.106-6.64 33.161-18.686 45.207l-198.688 198.688-90.404-90.433zM163.641 13.611c17.070-5.865 34.876-8.826 53.116-8.826 43.597 0 84.56 16.963 115.341 47.761 45.084 45.080 59.786 110.317 38.377 170.259l-5.641 15.791 356.733 356.799 15.778-5.616c17.604-6.265 36.091-9.442 54.95-9.442 43.583 0 84.569 16.968 115.409 47.776 44.579 44.61 59.226 109.563 38.897 168.492l-62.081-62.082-104.376-1.415 1.415 101.297 63.717 63.701c-17.136 5.909-35.050 8.9-53.401 8.9-43.597 0-84.559-16.968-115.339-47.779-45.174-45.142-59.845-110.45-38.302-170.455l5.677-15.81-356.653-356.635-15.801 5.658c-17.614 6.306-36.157 9.504-55.114 9.504-43.583 0-84.555-16.975-115.365-47.798-44.71-44.682-59.336-109.73-38.863-168.753l63.738 63.738 101.267 1.355-1.414-104.359-62.065-62.064zM87.815 833.104l103.212-103.197 25.558 25.58 0.013-0.013 13.704 13.693-103.185 103.185-39.301-39.248z" />
<glyph unicode="&#xe92a;" glyph-name="submit-feedback" d="M476 167.2h-160c-40 0-72 32.8-72 72v402.4c0 40 32.8 72 72 72h356c40 0 72-32.8 72-72v-245.6c0-6.4-5.6-12-12-12s-12 5.6-12 12v245.6c0 26.4-21.6 48-48 48h-356c-26.4 0-48-21.6-48-48v-401.6c0-26.4 21.6-48 48-48h160c6.4 0 12-5.6 12-12s-5.6-12.8-12-12.8zM611.2 548.8h-232c-6.4 0-12 5.6-12 12v5.6c0 6.4 5.6 12 12 12h231.2c6.4 0 12-5.6 12-12v-5.6c0.8-7.2-4.8-12-11.2-12zM611.2 420h-232c-6.4 0-12 5.6-12 12v5.6c0 6.4 5.6 12 12 12h231.2c6.4 0 12-5.6 12-12v-5.6c0.8-6.4-4.8-12-11.2-12zM479.2 292h-100c-6.4 0-12 5.6-12 12v5.6c0 6.4 5.6 12 12 12h99.2c6.4 0 12-5.6 12-12v-5.6c0.8-7.2-4.8-12-11.2-12zM744.8 320c-4.8 4.8-12 4.8-16.8 0l-124-124-37.6 43.2c-4 4.8-12 5.6-16.8 0.8-4.8-4-5.6-12-0.8-16.8l46.4-52c0 0 0-0.8 0.8-0.8 0 0 0.8-0.8 0.8-0.8 0.8-0.8 0.8-0.8 1.6-1.6 0.8 0 0.8-0.8 1.6-0.8s2.4-0.8 3.2-0.8c0 0 0 0 0 0s0 0 0 0 0 0 0 0c3.2 0 5.6 0.8 8 3.2 0.8 0.8 1.6 1.6 1.6 1.6l132 132c4 4 4 12 0 16.8z" />
<glyph unicode="&#xe92b;" glyph-name="password" d="M702.4 576h-347.2c0.8 3.2 8 31.2 26.4 60.8 24.8 39.2 58.4 62.4 100 68 39.2 5.6 75.2-0.8 105.6-18.4 26.4-15.2 44-35.2 56-48.8 4-4 6.4-8 9.6-10.4 8.8-8.8 24-8.8 32.8 0s8.8 24 0 32.8c-1.6 1.6-4.8 4.8-8 8-25.6 29.6-86.4 98.4-202.4 81.6-55.2-8-101.6-39.2-133.6-90.4-24-37.6-31.2-73.6-32-75.2-0.8-4-0.8-8 0.8-11.2-40-5.6-70.4-40-70.4-80.8v-234.4c0-44.8 36.8-81.6 81.6-81.6h380.8c44.8 0 81.6 36.8 81.6 81.6v234.4c0 44.8-36.8 84-81.6 84zM736 259.2c0-19.2-16-35.2-35.2-35.2h-377.6c-19.2 0-35.2 16-35.2 35.2v233.6c0 19.2 16 35.2 35.2 35.2h376.8c19.2 0 35.2-16 35.2-35.2v-233.6zM512 462.4c-24.8 0-44.8-20-44.8-44 0-19.2 12.8-35.2 28.8-41.6v-46.4c0-8 8-14.4 16-14.4s16 6.4 16 14.4v46.4c16 5.6 28.8 22.4 28.8 41.6 0 24.8-20.8 44-44.8 44z" />
<glyph unicode="&#xe92c;" glyph-name="delete" d="M504 734.4c-159.2 0-288-128.8-288-288s128.8-288 288-288 288 128.8 288 288c0 159.2-128.8 288-288 288zM624.8 325.6c-8-8-20.8-8-28.8 0l-92 92-92-92c-8-8-20.8-8-28.8 0s-8 20.8 0 28.8l92 92-92 92c-8 8-8 20.8 0 28.8s20.8 8 28.8 0l92-92 92 92c8 8 20.8 8 28.8 0s8-20.8 0-28.8l-92-92 92-92c9.6-8 9.6-20.8 0-28.8z" />
<glyph unicode="&#xe92d;" glyph-name="username" d="M774.4 230.4c-24 108-104.8 192-206.4 224 50.4 30.4 84 84.8 84 148 0 95.2-77.6 172-172 172s-172-77.6-172-172c0-90.4 69.6-164 157.6-171.2 4-3.2 8.8-5.6 14.4-5.6 120 0 226.4-85.6 252-204 1.6-8 0-22.4-5.6-28.8-4.8-6.4-12-16-20.8-16h-452c-8 0-15.2 9.6-20.8 16-4.8 6.4-7.2 17.6-5.6 26.4 14.4 64.8 55.2 124.8 111.2 162.4 9.6 6.4 12.8 20.8 5.6 30.4-6.4 9.6-20 12.8-29.6 6.4-65.6-43.2-112-112-128.8-187.2-4.8-20.8 0-47.2 13.6-64s32.8-30.4 54.4-30.4h452.8c20.8 0 40.8 14.4 54.4 30.4 12.8 16 18.4 42.4 13.6 63.2zM351.2 602.4c0 71.2 57.6 128.8 128.8 128.8s128.8-57.6 128.8-128.8-57.6-129.6-128.8-129.6-128.8 58.4-128.8 129.6z" />
<glyph unicode="&#xe92e;" glyph-name="show" d="M620.8 496c0-55.67-45.13-100.8-100.8-100.8s-100.8 45.13-100.8 100.8c0 55.67 45.13 100.8 100.8 100.8s100.8-45.13 100.8-100.8zM520 709.6c-161.6 0-400-157.6-400-213.6 0-61.6 245.6-213.6 400-213.6 176 0 400 166.4 400 213.6s-185.6 213.6-400 213.6zM520 342.4c-84.8 0-153.6 68.8-153.6 153.6s68.8 153.6 153.6 153.6 153.6-68.8 153.6-153.6c0-84.8-68.8-153.6-153.6-153.6z" />
<glyph unicode="&#xe92f;" glyph-name="hide" d="M881.6 677.6l-711.2-411.2c-8.8-4.8-20.8-2.4-25.6 7.2l-8.8 15.2c-4.8 8.8-2.4 20.8 7.2 25.6l711.2 410.4c8.8 4.8 20.8 2.4 25.6-7.2l8.8-15.2c4.8-8 1.6-20-7.2-24.8zM208.8 393.6l150.4 86.4c-0.8 4.8-0.8 10.4-0.8 15.2 0 84.8 68.8 153.6 153.6 153.6 33.6 0 64.8-10.4 89.6-28.8l90.4 52c-54.4 22.4-116 37.6-180 37.6-161.6 0-400-157.6-400-213.6 0-24.8 40-64 96.8-102.4zM823.2 599.2l-158.4-91.2c0-4 0.8-8 0.8-12 0-84.8-68.8-153.6-153.6-153.6-32 0-62.4 9.6-86.4 27.2l-81.6-47.2c57.6-24 117.6-40 168-40 176 0 400 166.4 400 213.6 0 20-33.6 61.6-88.8 103.2zM548.8 589.6c-11.2 4.8-24 7.2-36.8 7.2-50.4 0-92-36.8-100-85.6l136.8 78.4zM479.2 400.8c10.4-3.2 20.8-5.6 32.8-5.6 48.8 0 89.6 35.2 99.2 81.6l-132-76z" />
</font>
</defs>
</svg>
